<svg width="113" height="96" viewBox="0 0 113 96" fill="none" xmlns="http://www.w3.org/2000/svg">
<path fill-rule="evenodd" clip-rule="evenodd" d="M49 26L3 70H29L54 26H55V22H57H59V26H60L85 70H111L65 26H67.5V9C67.5 6.28733 66.0051 3.82709 64 2C61.8017 -0.00320452 57 3.25939e-08 57 3.25939e-08C57 3.25939e-08 52.1983 -0.00320452 50 2C47.9949 3.82709 46.5 6.28733 46.5 9V26H49Z" fill="#00203A"/>
<rect x="55" y="26" width="4" height="4" fill="#00203A"/>
<rect x="55" y="34" width="4" height="9" fill="#00203A"/>
<rect x="55" y="47" width="4" height="9" fill="#00203A"/>
<rect x="55" y="60" width="4" height="9" fill="#00203A"/>
<path d="M4.40458 76.2364V91H1.28317V76.2364H4.40458ZM20.1334 76.2364V91H17.4373L11.0143 81.7078H10.9061V91H7.78472V76.2364H10.5241L16.8966 85.5213H17.0264V76.2364H20.1334ZM33.3139 81.0086C33.213 80.6578 33.0712 80.3478 32.8886 80.0787C32.706 79.8047 32.4825 79.574 32.2182 79.3866C31.9587 79.1944 31.6607 79.0478 31.3243 78.9469C30.9927 78.846 30.625 78.7955 30.2213 78.7955C29.4668 78.7955 28.8036 78.9829 28.2317 79.3578C27.6646 79.7326 27.2225 80.2781 26.9053 80.9942C26.5881 81.7054 26.4295 82.5753 26.4295 83.6038C26.4295 84.6322 26.5857 85.5069 26.8981 86.2278C27.2105 86.9487 27.6526 87.4989 28.2245 87.8786C28.7964 88.2534 29.4716 88.4409 30.2502 88.4409C30.9566 88.4409 31.5598 88.3159 32.0596 88.066C32.5642 87.8113 32.9487 87.4533 33.213 86.9919C33.4821 86.5305 33.6167 85.9851 33.6167 85.3555L34.2511 85.4492H30.4448V83.0991H36.6228V84.959C36.6228 86.2566 36.3488 87.3716 35.801 88.3039C35.2531 89.2314 34.4986 89.9475 33.5374 90.4521C32.5762 90.9519 31.4757 91.2018 30.2358 91.2018C28.8517 91.2018 27.6358 90.8967 26.5881 90.2863C25.5404 89.6712 24.7234 88.7989 24.1371 87.6695C23.5556 86.5353 23.2648 85.1897 23.2648 83.6326C23.2648 82.4359 23.4378 81.369 23.7839 80.4319C24.1347 79.4899 24.6249 78.6922 25.2545 78.0386C25.884 77.385 26.6169 76.8876 27.4532 76.5463C28.2894 76.2051 29.1953 76.0345 30.1709 76.0345C31.0071 76.0345 31.7856 76.1571 32.5065 76.4022C33.2274 76.6425 33.8666 76.9837 34.4241 77.4258C34.9864 77.868 35.4453 78.3942 35.801 79.0045C36.1566 79.6101 36.3849 80.2781 36.4858 81.0086H33.3139ZM39.7794 91V76.2364H49.7276V78.8099H42.9008V82.3278H49.2157V84.9013H42.9008V88.4265H49.7564V91H39.7794ZM66.0475 81.4051H62.8901C62.8324 80.9966 62.7146 80.6337 62.5368 80.3165C62.359 79.9946 62.1307 79.7206 61.852 79.4947C61.5733 79.2689 61.2513 79.0959 60.886 78.9757C60.5256 78.8556 60.1339 78.7955 59.711 78.7955C58.9468 78.7955 58.2812 78.9853 57.7141 79.365C57.147 79.7398 56.7073 80.2877 56.3949 81.0086C56.0825 81.7247 55.9264 82.5945 55.9264 83.6182C55.9264 84.6707 56.0825 85.5549 56.3949 86.271C56.7121 86.9871 57.1543 87.5278 57.7213 87.893C58.2884 88.2583 58.9444 88.4409 59.6894 88.4409C60.1075 88.4409 60.4943 88.3856 60.85 88.2751C61.2104 88.1645 61.53 88.0035 61.8087 87.7921C62.0875 87.5758 62.3182 87.3139 62.5008 87.0063C62.6882 86.6987 62.818 86.3479 62.8901 85.9538L66.0475 85.9683C65.9658 86.6459 65.7616 87.2995 65.4348 87.929C65.1128 88.5538 64.6778 89.1137 64.13 89.6087C63.5869 90.0989 62.9381 90.4882 62.1836 90.7765C61.4339 91.0601 60.5856 91.2018 59.6389 91.2018C58.3221 91.2018 57.1446 90.9039 56.1066 90.308C55.0733 89.712 54.2563 88.8494 53.6556 87.72C53.0597 86.5906 52.7617 85.2233 52.7617 83.6182C52.7617 82.0082 53.0645 80.6385 53.67 79.5092C54.2755 78.3798 55.0973 77.5195 56.1354 76.9284C57.1735 76.3325 58.3413 76.0345 59.6389 76.0345C60.4943 76.0345 61.2873 76.1547 62.0178 76.395C62.7531 76.6353 63.4043 76.9861 63.9714 77.4474C64.5385 77.904 64.9998 78.4639 65.3555 79.1271C65.7159 79.7903 65.9466 80.5496 66.0475 81.4051ZM82.1242 81.4051H78.9667C78.909 80.9966 78.7913 80.6337 78.6135 80.3165C78.4357 79.9946 78.2074 79.7206 77.9286 79.4947C77.6499 79.2689 77.3279 79.0959 76.9627 78.9757C76.6022 78.8556 76.2105 78.7955 75.7876 78.7955C75.0235 78.7955 74.3579 78.9853 73.7908 79.365C73.2237 79.7398 72.784 80.2877 72.4716 81.0086C72.1592 81.7247 72.003 82.5945 72.003 83.6182C72.003 84.6707 72.1592 85.5549 72.4716 86.271C72.7888 86.9871 73.2309 87.5278 73.798 87.893C74.3651 88.2583 75.0211 88.4409 75.766 88.4409C76.1841 88.4409 76.571 88.3856 76.9266 88.2751C77.2871 88.1645 77.6066 88.0035 77.8854 87.7921C78.1641 87.5758 78.3948 87.3139 78.5774 87.0063C78.7649 86.6987 78.8946 86.3479 78.9667 85.9538L82.1242 85.9683C82.0425 86.6459 81.8382 87.2995 81.5114 87.929C81.1894 88.5538 80.7545 89.1137 80.2066 89.6087C79.6636 90.0989 79.0148 90.4882 78.2602 90.7765C77.5105 91.0601 76.6623 91.2018 75.7155 91.2018C74.3987 91.2018 73.2213 90.9039 72.1832 90.308C71.15 89.712 70.333 88.8494 69.7322 87.72C69.1363 86.5906 68.8383 85.2233 68.8383 83.6182C68.8383 82.0082 69.1411 80.6385 69.7466 79.5092C70.3522 78.3798 71.174 77.5195 72.2121 76.9284C73.2501 76.3325 74.4179 76.0345 75.7155 76.0345C76.571 76.0345 77.3639 76.1547 78.0944 76.395C78.8297 76.6353 79.4809 76.9861 80.048 77.4474C80.6151 77.904 81.0765 78.4639 81.4321 79.1271C81.7926 79.7903 82.0232 80.5496 82.1242 81.4051ZM93.1835 80.4824C93.1258 79.9008 92.8783 79.4491 92.441 79.1271C92.0036 78.8051 91.4101 78.6441 90.6604 78.6441C90.151 78.6441 89.7209 78.7162 89.37 78.8604C89.0192 78.9997 88.7501 79.1944 88.5626 79.4443C88.38 79.6942 88.2887 79.9777 88.2887 80.2949C88.2791 80.5592 88.3344 80.7899 88.4545 80.987C88.5795 81.184 88.7501 81.3546 88.9663 81.4988C89.1826 81.6382 89.4325 81.7607 89.7161 81.8664C89.9996 81.9674 90.3024 82.0539 90.6244 82.126L91.9508 82.4431C92.5948 82.5873 93.1859 82.7796 93.7241 83.0199C94.2624 83.2601 94.7286 83.5557 95.1227 83.9065C95.5167 84.2574 95.8219 84.6707 96.0382 85.1464C96.2592 85.6222 96.3722 86.1677 96.377 86.7828C96.3722 87.6864 96.1415 88.4697 95.6849 89.1329C95.2332 89.7913 94.5796 90.3031 93.7241 90.6684C92.8735 91.0288 91.8475 91.2091 90.646 91.2091C89.4541 91.2091 88.4161 91.0264 87.5318 90.6612C86.6523 90.2959 85.9651 89.7553 85.4701 89.0392C84.9799 88.3183 84.7228 87.4268 84.6987 86.3647H87.7192C87.7529 86.8597 87.8946 87.273 88.1445 87.6047C88.3992 87.9315 88.7381 88.179 89.161 88.3472C89.5887 88.5106 90.0717 88.5923 90.6099 88.5923C91.1386 88.5923 91.5975 88.5154 91.9868 88.3616C92.3809 88.2078 92.6861 87.9939 92.9023 87.72C93.1186 87.4461 93.2267 87.1313 93.2267 86.7756C93.2267 86.444 93.1282 86.1653 92.9312 85.9394C92.7389 85.7135 92.4554 85.5213 92.0805 85.3627C91.7105 85.2041 91.2563 85.0599 90.7181 84.9302L89.1105 84.5265C87.8658 84.2237 86.883 83.7503 86.1621 83.1064C85.4412 82.4624 85.0832 81.5949 85.088 80.504C85.0832 79.6101 85.3211 78.8291 85.8017 78.1611C86.2871 77.4931 86.9527 76.9717 87.7985 76.5968C88.6443 76.2219 89.6055 76.0345 90.682 76.0345C91.7778 76.0345 92.7341 76.2219 93.5511 76.5968C94.3729 76.9717 95.0121 77.4931 95.4687 78.1611C95.9252 78.8291 96.1607 79.6029 96.1751 80.4824H93.1835ZM101.496 91H98.1514L103.248 76.2364H107.271L112.36 91H109.015L105.317 79.6101H105.202L101.496 91ZM101.287 85.1969H109.188V87.6335H101.287V85.1969Z" fill="#00203A"/>
</svg>
